{"title":"Interview de Mylene Farmer_TF1_02.12.2012","uid":7880781,"size":200555568,"categoryP":"video","categoryS":"music_videos","magnet":"?xt=urn:btih:c7531745aa54b412df03abb7f03a2454cb239090&amp;dn=Interview+de+Mylene+Farmer_TF1_02.12.2012&amp;tr=udp%3A%2F%2Ftracker.openbittorrent.com%3A80&amp;tr=udp%3A%2F%2Fopen.demonii.com%3A1337&amp;tr=udp%3A%2F%2Ftracker.coppersurfer.tk%3A6969&amp;tr=udp%3A%2F%2Fexodus.desync.com%3A6969","seeders":1,"leechers":0,"uploader":null,"files":-1,"time":1354487147,"description":"Format                                   : AVI\nFormat/Info                              : Audio Video Interleave\nFile size                                : 191 MiB\nDuration                                 : 6mn 16s\nOverall bit rate                         : 4 264 Kbps\nWriting library                          : TMPGEnc 4.0 XPress Version. 4.7.7.307\n\nVideo\nID                                       : 0\nFormat                                   : MPEG-4 Visual\nFormat profile                           : Advanced Simple@L5\nFormat settings, BVOP                    : 2\nFormat settings, QPel                    : No\nFormat settings, GMC                     : No warppoints\nFormat settings, Matrix                  : Default (H.263)\nMuxing mode                              : Packed bitstream\nCodec ID                                 : XVID\nCodec ID/Hint                            : XviD\nDuration                                 : 6mn 16s\nBit rate                                 : 2 715 Kbps\nWidth                                    : 720 pixels\nHeight                                   : 404 pixels\nDisplay aspect ratio                     : 16:9\nFrame rate                               : 25.000 fps\nColor space                              : YUV\nChroma subsampling                       : 4:2:0\nBit depth                                : 8 bits\nScan type                                : Progressive\nCompression mode                         : Lossy\nBits/(Pixel*Frame)                       : 0.373\nStream size                              : 122 MiB (64%)\nWriting library                          : XviD 64\n\nAudio\nID                                       : 1\nFormat                                   : PCM\nFormat settings, Endianness              : Little\nFormat settings, Sign                    : Signed\nCodec ID                                 : 1\nDuration                                 : 6mn 16s\nBit rate mode                            : Constant\nBit rate                                 : 1 536 Kbps\nChannel(s)                               : 2 channels\nSampling rate                            : 48.0 KHz\nBit depth                                : 16 bits\nStream size                              : 68.9 MiB (36%)\nInterleave, duration                     : 40 ms (1.00 video frame)\nInterleave, preload duration             : 479 ms\n\n","torrent":{"xt":"urn:btih:c7531745aa54b412df03abb7f03a2454cb239090","amp;dn":"Interview+de+Mylene+Farmer_TF1_02.12.2012","amp;tr":["udp%3A%2F%2Ftracker.openbittorrent.com%3A80","udp%3A%2F%2Fopen.demonii.com%3A1337","udp%3A%2F%2Ftracker.coppersurfer.tk%3A6969","udp%3A%2F%2Fexodus.desync.com%3A6969"],"infoHash":"c7531745aa54b412df03abb7f03a2454cb239090","infoHashBuffer":{"type":"Buffer","data":[199,83,23,69,170,84,180,18,223,3,171,183,240,58,36,84,203,35,144,144]},"announce":[],"urlList":[]}}